  <svg xmlns="http://www.w3.org/2000/svg" width="49.421" height="47.662" viewBox="0 0 49.421 47.662">
    <path id="Path_16" data-name="Path 16" d="M23.786,39.768a24.236,24.236,0,0,1-1.316-2.309c-.322-.645.564-1.558,1.154-.94a.026.026,0,0,0,.027.027,28.238,28.238,0,0,0,6.552,6.82,10.649,10.649,0,0,0,10.445.537c5.693-2.551,8.056-9.345,6.257-15.118-1.665-5.4-6.042-9.157-9.559-13.345-4-4.753-5.4-8.62-5.344-14.823V.564a.619.619,0,0,1,1.235.053c.268,8.888,4.215,12.218,9.72,18.393a25.89,25.89,0,0,1,5.8,9.4,14.971,14.971,0,0,1,.4,7.143C47.979,41.594,43.9,46.132,37.7,47.1c-5.021.805-9.559-1.907-12.675-5.666a12.441,12.441,0,0,1-2.632,3.061,13.86,13.86,0,0,1-9.882,3.142,13.172,13.172,0,0,1-12-10.15,16.882,16.882,0,0,1,1.45-11.922,63.38,63.38,0,0,1,5.961-8.888C10.95,12.433,15.837,6.2,15.972.913A.672.672,0,0,1,17.314.94c.08,5.5-4.726,12.513-7.868,16.81-2.738,3.759-6.632,8.351-7.169,13.1-.51,4.27.51,9.049,3.813,12a11.117,11.117,0,0,0,12.272,1.558,13.752,13.752,0,0,0,5.424-4.646Z" transform="translate(0.002 -0.006)" fill="#2332e6" fill-rule="evenodd"></path>
  </svg>