<svg xmlns="http://www.w3.org/2000/svg" width="130" height="35.152" viewBox="0 0 130 35.152">
    <path id="Path_14" data-name="Path 14" d="M1711.6-78.728h.8a13.722,13.722,0,0,0,7.242-2.594,14.681,14.681,0,0,0,5.62-7.717,9.567,9.567,0,0,0-.108-6.1,9.051,9.051,0,0,0-5.383-4.972c-.54-.238-.864-.346-1.211-.5-.864-.367-1.557-.584-1.795-.691h0c-1.233-.433-2.788-.929-3.048-1.448-.735-1.557,3.2-2.9,3.588-.282a1.568,1.568,0,0,1,.022.627l9.772-.108a10.163,10.163,0,0,0-1.535-7.61c-1.211-1.686-3.61-3.718-8.193-3.761a13.474,13.474,0,0,0-3.286.346,13.452,13.452,0,0,0-5.62,2.767,13.5,13.5,0,0,0-4.323,6.2,9.575,9.575,0,0,0,.691,7.717c1.686,2.941,4.734,4,7.22,4.821,0,0,.735.26,1.448.54.238.108.519.238.995.454.735.3,1.081.54,1.124.822.26,1.773-3.912,3.048-4.367.087a4.067,4.067,0,0,1-.065-1.168h-9.772a13.911,13.911,0,0,0,.022,4.345,9.654,9.654,0,0,0,4.216,6.593,11.032,11.032,0,0,0,5.946,1.62Zm-107.916-35.15-6.42,35.021H1613.3c4.907,0,10.247-4.712,11.133-9.555.822-4.518-1.016-7.177-4.107-8.6a11.422,11.422,0,0,0,5.9-7.8c.929-5.016-2.377-9.057-7.393-9.057Zm3.59,27.583.886-4.821h5.34a1.973,1.973,0,0,1,2.032,2.184A2.8,2.8,0,0,1,1612.8-86.3Zm7.415-19.412c1.275,0,2.4.649,2.184,1.9a2.609,2.609,0,0,1-2.766,2.335h-4.085l.757-4.237Zm27.951,26.848h11.09L1649.7-113.88h-11.716l-16.84,35.021h11.068l1.924-4.669h8.258Zm-1.188-22.114c.173,2.941.346,5.9.5,8.841h-4.237Zm36.36,13.51h-11.349l4.864-26.417h-10.182L1654.7-78.859l21.532-.044Zm23.023.065H1689.5l4.843-26.482h-10.181l-6.42,35.063,21.51-.043Z" transform="translate(-1597.26 113.88)" fill="#2332e6"></path>
  </svg>